<svg width="800" height="800" viewBox="0 0 800 800" fill="none" xmlns="http://www.w3.org/2000/svg">
  <rect width="800" height="800" fill="#ffffff"/>
  <rect x="40" y="40" width="720" height="720" rx="40" fill="#F8FAFC" stroke="#0F172A" stroke-width="24"/>
  <rect x="100" y="100" width="160" height="160" fill="#0F172A"/>
  <rect x="132" y="132" width="96" height="96" fill="#F8FAFC"/>
  <rect x="540" y="100" width="160" height="160" fill="#0F172A"/>
  <rect x="572" y="132" width="96" height="96" fill="#F8FAFC"/>
  <rect x="100" y="540" width="160" height="160" fill="#0F172A"/>
  <rect x="132" y="572" width="96" height="96" fill="#F8FAFC"/>
  <path d="M340 330H380V370H340V330ZM420 330H460V370H420V330ZM500 330H540V370H500V330ZM340 410H380V450H340V410ZM420 410H460V450H420V410ZM500 410H540V450H500V410ZM340 490H380V530H340V490ZM420 490H460V530H420V490ZM500 490H540V530H500V490Z" fill="#0F172A"/>
  <text x="400" y="640" text-anchor="middle" font-family="Arial" font-size="34" fill="#0F172A">Scan to pay via UPI</text>
  <text x="400" y="685" text-anchor="middle" font-family="Arial" font-size="22" fill="#475569">Mmart • Manual Verification</text>
</svg>
